<svg xmlns="http://www.w3.org/2000/svg" xmlns:xlink="http://www.w3.org/1999/xlink" viewBox="0 0 286.28 128.38"><defs><style>.cls-1{isolation:isolate;}.cls-2{fill:url(#linear-gradient);}.cls-3{fill:url(#linear-gradient-2);}.cls-4{fill:#091e42;opacity:0.18;mix-blend-mode:multiply;}.cls-5{opacity:0.2;}.cls-6{fill:#998dd9;}.cls-7{fill:#fff;}.cls-8{fill:url(#linear-gradient-3);}.cls-9{fill:#2684ff;}.cls-10{fill:#b6ceff;opacity:0.55;}.cls-11{fill:url(#linear-gradient-4);}.cls-12{fill:#ffab00;opacity:0.5;}.cls-13{fill:url(#linear-gradient-5);}.cls-14{fill:#b2d4ff;}</style><linearGradient id="linear-gradient" x1="32.78" y1="237.61" x2="290.04" y2="-166.65" gradientUnits="userSpaceOnUse"><stop offset="0" stop-color="#c0b6f2"/><stop offset="1" stop-color="#fcc6eb"/></linearGradient><linearGradient id="linear-gradient-2" x1="213.85" y1="135.57" x2="71.46" y2="31.18" gradientTransform="translate(31.92 -38.22) rotate(22.97)" xlink:href="#linear-gradient"/><linearGradient id="linear-gradient-3" x1="343.46" y1="16.6" x2="114.9" y2="85.66" gradientTransform="translate(174.85 -139.97) rotate(67.03)" gradientUnits="userSpaceOnUse"><stop offset="0.13" stop-color="#f992d2"/><stop offset="0.24" stop-color="#f38fd1"/><stop offset="0.38" stop-color="#e088cd"/><stop offset="0.56" stop-color="#c27bc7"/><stop offset="0.75" stop-color="#996abf"/><stop offset="0.95" stop-color="#6454b5"/><stop offset="1" stop-color="#564eb2"/></linearGradient><linearGradient id="linear-gradient-4" x1="202.31" y1="26.35" x2="103.71" y2="143.88" gradientUnits="userSpaceOnUse"><stop offset="0.01" stop-color="#fff0b2"/><stop offset="0.06" stop-color="#ffe584"/><stop offset="0.12" stop-color="#ffd955"/><stop offset="0.18" stop-color="#ffd030"/><stop offset="0.24" stop-color="#ffc916"/><stop offset="0.29" stop-color="#ffc506"/><stop offset="0.33" stop-color="#ffc400"/><stop offset="0.58" stop-color="#ffb709"/><stop offset="1" stop-color="#ff991f"/></linearGradient><linearGradient id="linear-gradient-5" x1="200.27" y1="32.27" x2="94" y2="151.58" gradientUnits="userSpaceOnUse"><stop offset="0.25" stop-color="#fff"/><stop offset="0.79" stop-color="#eae7fb"/><stop offset="0.89" stop-color="#ebecf0"/></linearGradient></defs><title>Asset 4</title><g class="cls-1"><g id="Layer_2" data-name="Layer 2"><g id="Layer_1-2" data-name="Layer 1"><rect class="cls-2" width="286.28" height="128.38"/><rect class="cls-3" x="60.59" y="28.59" width="98.8" height="61.67" rx="1.47" transform="translate(-14.47 47.64) rotate(-22.97)"/><path class="cls-4" d="M119.15,74.78a33.74,33.74,0,0,0-3,13.89c0,.54,0,1.08,0,1.61l36.58-15.5Z"/><g class="cls-5"><path class="cls-6" d="M73.7,49H92.59a1.92,1.92,0,0,1,1.92,1.92V93.26a1.91,1.91,0,0,1-1.91,1.91H73.7a1.91,1.91,0,0,1-1.91-1.91V50.88A1.91,1.91,0,0,1,73.7,49Z" transform="translate(-21.53 38.17) rotate(-22.97)"/><path class="cls-6" d="M93,42.82l17.17-7.28a2,2,0,0,1,2.57,1.15l11.88,28a2,2,0,0,1-1,2.64l-17.17,7.28a2,2,0,0,1-2.57-1.15L92,45.46A2,2,0,0,1,93,42.82Z"/><path class="cls-7" d="M118.06,32.18l17.39-7.38A2,2,0,0,1,138,26l5.84,13.77a2,2,0,0,1-1,2.64l-17.39,7.38a2,2,0,0,1-2.57-1.16L117.1,34.82A2,2,0,0,1,118.06,32.18Z"/></g><rect class="cls-8" x="162.27" y="12.63" width="61.67" height="98.8" rx="1.47" transform="translate(60.62 215.61) rotate(-67.03)"/><g class="cls-5"><path class="cls-7" d="M179.59,40l-2.86,6.74c-.31.73-1.44.94-2.53.48l-10.11-4.29c-1.09-.46-1.73-1.42-1.42-2.15l2.86-6.74c.31-.73,1.44-.94,2.53-.48l10.11,4.29C179.26,38.32,179.89,39.28,179.59,40Z"/><path class="cls-7" d="M184.84,27.62,182,34.36c-.31.72-1.44.94-2.53.48l-10.11-4.29c-1.09-.46-1.72-1.43-1.42-2.15l2.86-6.74c.31-.73,1.44-.94,2.53-.48l10.11,4.29C184.51,25.93,185.15,26.89,184.84,27.62Z"/><path class="cls-7" d="M199.12,48.29,196.26,55a1.5,1.5,0,0,1-2,.71L177,48.42a1.49,1.49,0,0,1-.87-1.92L179,39.76a1.49,1.49,0,0,1,2-.71l17.26,7.32A1.5,1.5,0,0,1,199.12,48.29Z"/><path class="cls-7" d="M236.92,64.32l-2.86,6.74a1.49,1.49,0,0,1-2,.71L199.63,58a1.49,1.49,0,0,1-.87-1.92l2.86-6.74a1.5,1.5,0,0,1,2-.71L236.05,62.4A1.49,1.49,0,0,1,236.92,64.32Z"/><path class="cls-7" d="M170.62,50.4l-2.86,6.74a1.5,1.5,0,0,1-2,.71l-7.33-3.11a1.49,1.49,0,0,1-.87-1.92l2.86-6.74a1.5,1.5,0,0,1,2-.71l7.33,3.11A1.5,1.5,0,0,1,170.62,50.4Z"/><path class="cls-7" d="M194,60.32l-2.86,6.74a1.5,1.5,0,0,1-2,.71L171.9,60.45a1.49,1.49,0,0,1-.87-1.92l2.86-6.74a1.49,1.49,0,0,1,2-.71l17.26,7.32A1.5,1.5,0,0,1,194,60.32Z"/><path class="cls-7" d="M231.82,76.35,229,83.09a1.49,1.49,0,0,1-2,.71L194.53,70a1.49,1.49,0,0,1-.87-1.92l2.86-6.74a1.5,1.5,0,0,1,2-.71L231,74.42A1.5,1.5,0,0,1,231.82,76.35Z"/><path class="cls-7" d="M165.52,62.43l-2.86,6.74a1.5,1.5,0,0,1-2,.71l-7.33-3.11a1.49,1.49,0,0,1-.87-1.92l2.86-6.74a1.5,1.5,0,0,1,2-.71l7.33,3.11A1.49,1.49,0,0,1,165.52,62.43Z"/><path class="cls-7" d="M188.15,72l-2.86,6.74a1.49,1.49,0,0,1-2,.71L166,72.15a1.5,1.5,0,0,1-.88-1.92L168,63.49a1.5,1.5,0,0,1,2-.71l17.27,7.32A1.49,1.49,0,0,1,188.15,72Z"/><path class="cls-7" d="M226,88.05l-2.86,6.74a1.48,1.48,0,0,1-2,.71L188.67,81.75a1.52,1.52,0,0,1-.88-1.93l2.86-6.74a1.5,1.5,0,0,1,2-.7l32.44,13.75A1.49,1.49,0,0,1,226,88.05Z"/></g><path class="cls-4" d="M161,14.94a1.47,1.47,0,0,0-1.93.78l-7,16.47L144,13.11h-3.77L95.94,31.89V73.27a1.51,1.51,0,0,0,1.5,1.51H197.72a1.51,1.51,0,0,0,1.5-1.51V31.13Z"/><rect class="cls-9" x="98.1" y="10.55" width="98.8" height="61.67" rx="1.47"/><g class="cls-5"><path class="cls-7" d="M108.41,19.45H127.3a1.91,1.91,0,0,1,1.91,1.91V63.73a1.92,1.92,0,0,1-1.92,1.92H108.41a1.91,1.91,0,0,1-1.91-1.91V21.36a1.92,1.92,0,0,1,1.92-1.92Z"/><path class="cls-7" d="M138.3,19.45H157a2,2,0,0,1,1.92,2.06V51.94A2,2,0,0,1,157,54H138.3a2,2,0,0,1-1.91-2.06V21.51A2,2,0,0,1,138.3,19.45Z"/><path class="cls-7" d="M165.56,19.45h18.9a2,2,0,0,1,1.91,2.06v15a2,2,0,0,1-1.91,2.06h-18.9a2,2,0,0,1-1.91-2.06v-15A2,2,0,0,1,165.56,19.45Z"/></g><path class="cls-4" d="M144.16,74.78l39.6,16.78c.08-1,.13-1.91.13-2.89a33.73,33.73,0,0,0-3-13.89Z"/><path class="cls-4" d="M120.43,72.22h59.19a33.86,33.86,0,0,0-59.19,0Z"/><g id="clock"><circle class="cls-10" cx="150.03" cy="88.67" r="32.04"/><circle class="cls-11" cx="150.03" cy="88.67" r="32.04"/><path class="cls-12" d="M162.43,99.22c-5-2.73-10.8-3.86-15.63-6.88a22.88,22.88,0,0,1-5-34.64,32,32,0,1,0,31.58,52.89A27.24,27.24,0,0,0,162.43,99.22Z"/><path class="cls-13" d="M150,62a26.65,26.65,0,1,0,26.64,26.64A26.67,26.67,0,0,0,150,62Z"/></g><path class="cls-9" d="M150,90.49a1.82,1.82,0,0,1-1-3.32V77.88a1,1,0,0,1,2,0v9.29a2.31,2.31,0,0,1,.24.2l7.44-5.15a.62.62,0,0,1,.85.15.61.61,0,0,1-.16.85l-7.59,5.26c0,.06,0,.13,0,.19A1.82,1.82,0,0,1,150,90.49Z"/><path class="cls-14" d="M150,66.6A1.06,1.06,0,1,1,149,67.65,1,1,0,0,1,150,66.6Z"/><path class="cls-14" d="M129.71,89A1.06,1.06,0,1,1,130.77,88,1.06,1.06,0,0,1,129.71,89Z"/><path class="cls-14" d="M133,99.05a1.06,1.06,0,1,1,.39-1.45A1.06,1.06,0,0,1,133,99.05Z"/><path class="cls-14" d="M133.35,78.34A1.06,1.06,0,1,1,133,76.9,1.06,1.06,0,0,1,133.35,78.34Z"/><path class="cls-14" d="M140.78,106.1A1.06,1.06,0,0,1,139,105a1.06,1.06,0,1,1,1.83,1.06Z"/><path class="cls-14" d="M140.4,71.29A1.06,1.06,0,0,1,139,70.9a1.05,1.05,0,1,1,1.45.39Z"/><path class="cls-14" d="M150,109.35a1.06,1.06,0,1,1,1.05-1.06A1.06,1.06,0,0,1,150,109.35Z"/><path class="cls-14" d="M160.72,106.48a1.06,1.06,0,1,1,.38-1.44A1.06,1.06,0,0,1,160.72,106.48Z"/><path class="cls-14" d="M161.1,70.9a1.05,1.05,0,1,1-.38-1.44A1.05,1.05,0,0,1,161.1,70.9Z"/><path class="cls-14" d="M168.54,98.66a1.05,1.05,0,0,1-1.44.39,1.06,1.06,0,0,1-.39-1.45,1.06,1.06,0,0,1,1.83,1.06Z"/><path class="cls-14" d="M168.15,78.73a1.05,1.05,0,1,1,.39-1.45A1.05,1.05,0,0,1,168.15,78.73Z"/><path class="cls-14" d="M170.35,89A1.06,1.06,0,1,1,171.4,88,1.05,1.05,0,0,1,170.35,89Z"/></g></g></g></svg>